<?xml version="1.0" encoding="utf-8"?>
<!-- Generator: Adobe Illustrator 16.0.0, SVG Export Plug-In . SVG Version: 6.00 Build 0)  -->
<!DOCTYPE svg PUBLIC "-//W3C//DTD SVG 1.1//EN" "http://www.w3.org/Graphics/SVG/1.1/DTD/svg11.dtd">
<svg version="1.1" id="Capa_1" xmlns="http://www.w3.org/2000/svg" xmlns:xlink="http://www.w3.org/1999/xlink" x="0px" y="0px"
	 width="24px" height="24px" viewBox="0 0 24 24" enable-background="new 0 0 24 24" xml:space="preserve">
<g>
	<path fill-rule="evenodd" clip-rule="evenodd" d="M16.331,21.145c-0.627,0-1.254,0-1.934,0c0,0.329,0,0.645,0,0.959l0.01-0.01
		c-0.945,0-1.892,0-2.874,0c0,0.322,0,0.623,0,0.963c-0.351,0-0.665,0-0.979,0l0.009,0.01c0-0.314,0-0.629,0-0.979
		c-0.347,0-0.647,0-0.961,0c0-0.342,0-0.648,0-0.954l-0.01,0.01c0.315,0,0.631,0,0.971,0c0-0.356,0-0.664,0-0.972l-0.009,0.01
		c0.323-0.003,0.647-0.006,0.971-0.01c0,0.316,0,0.631,0,0.94c0.662,0,1.284,0,1.9,0c0-0.96,0-1.895,0-2.865
		c-0.318,0-0.621,0-0.949,0c0-0.345,0-0.651,0-0.958c0.636,0,1.271,0,1.944,0c0-0.663,0-1.285,0-1.932c0.331,0,0.624,0,0.923,0
		c0-0.326,0-0.628,0-0.924c-0.645,0-1.267,0-1.913,0c0,0.641,0,1.254,0,1.905c-0.326,0-0.628,0-0.944,0c0,0.345,0,0.651,0,0.96
		c-0.315,0-0.631,0-0.971,0c0-0.68,0-1.307,0-1.934c0.314,0,0.629,0,0.942,0c0-0.34,0-0.64,0-0.953c-0.33,0-0.637,0-0.942,0
		c0-0.635,0-1.271,0-1.933c0.356,0,0.663,0,0.97,0c0.001,0.314,0.001,0.628,0.001,0.945c0.337,0,0.637,0,0.933,0
		c0-0.323,0-0.623,0-0.935c-0.331,0-0.637,0-0.942,0c0-0.636,0-1.271,0-1.932c-0.347,0-0.653,0-0.961,0l0.01,0.01
		c0-0.315,0-0.631,0-0.982c-0.351,0-0.652,0-0.947,0c0-0.331,0-0.624,0-0.953c0.319,0,0.622,0,0.947,0c0-0.344,0-0.651,0-0.958
		l-0.01,0.009c0.324,0,0.647,0,0.971,0l-0.009-0.009c0,0.636,0,1.271,0,1.933c0.356,0,0.663,0,0.971,0l-0.01-0.01
		c0,0.635,0,1.27,0,1.905c0.668,0,1.288,0,1.933,0c0-0.33,0-0.636,0-0.943l-0.01,0.01c0.319-0.004,0.639-0.008,0.958-0.012
		c0.001,0-0.011-0.01-0.011-0.01c0,0.308,0,0.615,0,0.956c1.61,0,3.19,0,4.799,0c0,0.333,0,0.634,0,0.972c-0.291,0-0.592,0-0.929,0
		c0,0.658,0,1.279,0,1.917c-0.328,0-0.621,0-0.95,0c0-0.296,0-0.598,0-0.938c-0.352,0-0.666,0-0.981,0c0-0.314,0-0.628,0-0.944
		c-0.338,0-0.638,0-0.934,0c0,0.323,0,0.624,0,0.934c0.331,0,0.638,0,0.943,0c0,0.308,0,0.615,0,0.959c-0.649,0-1.271,0-1.911,0
		c0,0.33,0,0.623,0,0.953c1.578,0,3.16,0,4.767,0c0,0.337,0,0.639,0,0.965c-0.299,0-0.592,0-0.912,0c0,0.646,0,1.268,0,1.941
		c0.309,0,0.624,0,0.939,0l-0.01-0.01c0,0.625,0,1.251,0,1.912c-0.311,0-0.611,0-0.934,0c0,0.656,0,1.275,0,1.943
		c0.314,0,0.629,0,0.944,0l-0.01-0.01c0,0.323,0,0.646,0,0.971l0.01-0.01c-1.266,0-2.531,0-3.834,0c0,0.317,0,0.618,0,0.942
		c-0.337,0-0.637,0-0.984,0c0-0.956,0-1.91,0-2.864c0.636,0,1.271,0,1.943,0c0,0.35,0,0.65,0,0.948c0.33,0,0.623,0,0.927,0
		c0-0.639,0-1.26,0-1.884c-0.963,0-1.903,0-2.86,0C16.331,20.53,16.331,20.838,16.331,21.145z M19.196,16.354
		c-0.968,0-1.909,0-2.843,0c0,0.966,0,1.907,0,2.843c0.961,0,1.894,0,2.843,0C19.196,18.247,19.196,17.313,19.196,16.354z
		 M14.43,19.229c0,0.334,0,0.634,0,0.932c0.318,0,0.611,0,0.916,0c0-0.317,0-0.617,0-0.932
		C15.034,19.229,14.741,19.229,14.43,19.229z"/>
	<path fill-rule="evenodd" clip-rule="evenodd" d="M10.554,23.057c0,0.307,0,0.613,0,0.943c-0.958,0-1.899,0-2.86,0
		c0-1.587,0-3.169,0-4.775c0.306,0,0.6,0,0.917,0c0-0.326,0-0.627,0-0.967c-0.3,0-0.602,0-0.927,0c0-0.649,0-1.263,0-1.912
		c-1.286,0-2.549,0-3.85,0c0-0.671,0-1.307,0-1.941l-0.01,0.01c0.306,0,0.612,0,0.955,0c0-0.325,0-0.627,0-0.963
		c0.669,0,1.304,0,1.938,0l-0.01-0.01c0.004,0.323,0.007,0.646,0.011,0.971c-0.314,0-0.629,0-0.945,0c0,0.337,0,0.637,0,0.933
		c0.323,0,0.624,0,0.936,0c0-0.331,0-0.637,0-0.942c0.634,0,1.269,0,1.938,0c0,0.348,0,0.648,0,0.962c0.343,0,0.649,0,0.956,0
		c0,0.323,0,0.647,0,0.972c-0.314,0-0.629,0-0.943,0c0,0.338,0,0.639,0,0.951c0.331,0,0.637,0,0.943,0c0,0.315,0,0.63,0,0.979
		c0.658,0,1.278,0,1.923,0c0,0.342,0,0.648,0,0.955c-0.315,0-0.631,0-0.971,0c0,0.347,0,0.654,0,0.961l0.009-0.01
		c-0.315,0-0.631,0-0.971,0c0,0.357,0,0.664,0,0.972l0.01-0.01c-0.315,0-0.63,0-0.942,0c0,0.669,0,1.29,0,1.933
		c0.65,0,1.277,0,1.903,0L10.554,23.057z"/>
	<path fill-rule="evenodd" clip-rule="evenodd" d="M8.641,4.797c0-0.308,0-0.615,0-0.958c-0.326,0-0.629,0-0.948,0
		c0-0.33,0-0.623,0-0.953c0.295,0,0.597,0,0.948,0c0-0.352,0-0.667,0-0.983L8.63,1.913c0.635,0,1.27,0,1.904,0
		c0-0.348,0-0.648,0-0.971c-0.651,0-1.277,0-1.904,0l0.011,0.01c0-0.307,0-0.614,0-0.943c0.956,0,1.897,0,2.875,0
		c0,0.304,0,0.605,0,0.922c0.65,0,1.263,0,1.913,0c0-0.299,0-0.601,0-0.923c0.337,0,0.638,0,0.964,0c0,0.301,0,0.594,0,0.924
		c0.325,0,0.627,0,0.968,0c0,0.351,0,0.666,0,0.981l0.01-0.01c-0.635,0-1.27,0-1.903,0c0,0.348,0,0.648,0,0.971
		c0.65,0,1.277,0,1.903,0l-0.01-0.009c-0.001,0.323-0.001,0.646-0.001,0.97l0.01-0.01c-0.307,0-0.613,0-0.954,0
		c0,0.965,0,1.905,0,2.885c-0.348,0-0.662,0-0.978,0l0.01,0.01c0-0.314,0-0.629,0-0.943c-0.348,0-0.648,0-0.971,0
		c0,0.331,0,0.637,0,0.943l0.009-0.01c-0.323,0-0.646,0-0.971,0l0.01,0.01c0-0.315,0-0.631,0-0.971c-0.356,0-0.664,0-0.971,0
		l0.009,0.01c0-0.315,0-0.631,0-0.982c0.983,0,1.926,0,2.862,0c0-0.331,0-0.624,0-0.953c-0.64,0-1.262,0-1.911,0
		c0-0.344,0-0.651,0-0.958c0.314,0,0.629,0,0.945,0c0-0.337,0-0.637,0-0.933c-0.323,0-0.623,0-0.936,0c0,0.331,0,0.637,0,0.943
		c-0.635,0-1.269,0-1.938,0c0,0.657,0,1.277,0,1.913c-0.342,0-0.648,0-0.955,0L8.641,4.797z"/>
	<path fill-rule="evenodd" clip-rule="evenodd" d="M0.007,0C2.245,0,4.46,0,6.693,0c0,2.23,0,4.445,0,6.688
		c-2.216,0-4.439,0-6.687,0C0.007,4.475,0.007,2.251,0.007,0z M5.727,5.739c0-1.61,0-3.193,0-4.766c-1.607,0-3.189,0-4.766,0
		c0,1.602,0,3.176,0,4.766C2.554,5.739,4.128,5.739,5.727,5.739z"/>
	<path fill-rule="evenodd" clip-rule="evenodd" d="M23.994,6.7c-2.239,0-4.454,0-6.688,0c0-2.23,0-4.445,0-6.688
		c2.218,0,4.44,0,6.688,0C23.994,2.227,23.994,4.45,23.994,6.7z M18.268,0.961c0,1.614,0,3.188,0,4.772c1.601,0,3.184,0,4.767,0
		c0-1.604,0-3.186,0-4.772C21.436,0.961,19.861,0.961,18.268,0.961z"/>
	<path fill-rule="evenodd" clip-rule="evenodd" d="M0.007,17.308c2.237,0,4.453,0,6.687,0c0,2.229,0,4.444,0,6.688
		c-2.216,0-4.438,0-6.687,0C0.007,21.782,0.007,19.56,0.007,17.308z M5.736,18.278c-1.611,0-3.193,0-4.766,0
		c0,1.606,0,3.189,0,4.765c1.602,0,3.176,0,4.766,0C5.736,21.451,5.736,19.877,5.736,18.278z"/>
	<path fill-rule="evenodd" clip-rule="evenodd" d="M6.717,13.451c0-0.307,0-0.614,0-0.958c-0.967,0-1.909,0-2.87,0
		c0-0.33,0-0.623,0-0.953c0.936,0,1.878,0,2.843,0c0-0.338,0-0.639,0-0.966c-0.298,0-0.591,0-0.911,0c0-0.326,0-0.627,0-0.969
		c0.949,0,1.905,0,2.861,0l-0.01-0.01c0,0.315,0,0.631,0,0.971c0.999,0,1.946,0,2.895,0l-0.01-0.01c0,0.315,0,0.63,0,0.981
		c-0.662,0-1.283,0-1.901,0c0,0.33,0,0.623,0,0.952c0.317,0,0.619,0,0.92,0c0,0.338,0,0.639,0,0.952c-1.292,0-2.56,0-3.826,0
		L6.717,13.451z"/>
	<path fill-rule="evenodd" clip-rule="evenodd" d="M21.139,18.26c0-0.307,0-0.614,0-0.959c0.638,0,1.261,0,1.9,0
		c0-0.651,0-1.265,0-1.916c-0.295,0-0.597,0-0.936,0c0-0.338,0-0.641,0-0.967c-0.33,0-0.624,0-0.943,0c0-0.326,0-0.627,0-0.967
		c0.3,0,0.602,0,0.928,0c0-0.651,0-1.265,0-1.903c0.646,0,1.269,0,1.91,0c0,0.294,0,0.587,0,0.918c-0.291,0-0.593,0-0.917,0
		c0,0.659,0,1.281,0,1.928c0.297,0,0.59,0,0.91,0c0,1.288,0,2.551,0,3.855c-0.949,0-1.906,0-2.862,0L21.139,18.26z"/>
	<path fill-rule="evenodd" clip-rule="evenodd" d="M0.948,9.605c0-0.308,0-0.615,0-0.959c-0.327,0-0.629,0-0.948,0
		c0-0.331,0-0.624,0-0.942c1.58,0,3.163,0,4.768,0c0,0.3,0,0.601,0,0.928c-0.306,0-0.599,0-0.93,0c0,0.646,0,1.269,0,1.916
		c-0.33,0-0.624,0-0.955,0c0,0.326,0,0.628,0,0.971c-0.352,0-0.667,0-0.983,0l0.01,0.01c0-0.636,0-1.271,0-1.933
		c-0.356,0-0.664,0-0.971,0L0.948,9.605z"/>
	<path fill-rule="evenodd" clip-rule="evenodd" d="M8.64,9.605c0-0.307,0-0.615,0-0.959c-0.967,0-1.909,0-2.87,0
		c0-0.33,0-0.623,0-0.953c0.936,0,1.878,0,2.871,0c0-0.352,0-0.667,0-0.983L8.63,6.72c0.314,0,0.63,0,0.979,0
		c0-0.347,0-0.648,0-0.961c0.342,0,0.648,0,0.954,0l-0.009-0.01c0,0.315,0,0.631,0,0.971c0.356,0,0.663,0,0.971,0l-0.01-0.01
		c0,0.324,0,0.647,0,0.971l0.01-0.009c-0.635,0-1.27,0-1.938,0c0,0.667,0,1.288,0,1.923c-0.343,0-0.649,0-0.956,0L8.64,9.605z"/>
	<path fill-rule="evenodd" clip-rule="evenodd" d="M1.899,11.518c0,0.627,0,1.253,0,1.917c-0.313,0-0.615,0-0.951,0
		c0,0.978,0,1.918,0,2.877c-0.327,0-0.619,0-0.939,0c0-1.254,0-2.515,0-3.812c0.288,0,0.59,0,0.939,0c0-0.351,0-0.666,0-0.981
		l-0.01,0.009c0.323,0,0.647,0,0.971,0L1.899,11.518z"/>
	<path fill-rule="evenodd" clip-rule="evenodd" d="M23.052,22.096c0,0.307,0,0.613,0,0.958c0.326,0,0.629,0,0.948,0
		c0,0.329,0,0.623,0,0.942c-0.937,0-1.878,0-2.86,0c0-0.309,0-0.625,0-0.939l-0.01,0.01c0.315,0,0.631,0,0.971,0
		c0-0.357,0-0.664,0-0.971l-0.01,0.01c0.324,0,0.647,0,0.972,0L23.052,22.096z"/>
	<path fill-rule="evenodd" clip-rule="evenodd" d="M18.256,9.604c0-0.625,0-1.25,0-1.9c0.309,0,0.608,0,0.944,0
		c0,0.292,0,0.593,0,0.941c0.349,0,0.663,0,0.977,0l-0.01-0.01c0,0.625,0,1.25,0,1.9c-0.309,0-0.608,0-0.944,0
		c0-0.293,0-0.593,0-0.941c-0.349,0-0.662,0-0.977,0L18.256,9.604z"/>
	<path fill-rule="evenodd" clip-rule="evenodd" d="M18.246,9.594c0,0.306,0,0.612,0,0.953c-0.653,0-1.296,0-1.938,0
		c-0.001,0,0.011,0.01,0.01,0.009c0-0.947,0-1.894,0-2.859c0.33,0,0.624,0,0.954,0c0,0.615,0,1.237,0,1.908c0.352,0,0.668,0,0.983,0
		C18.256,9.604,18.246,9.594,18.246,9.594z"/>
	<path fill-rule="evenodd" clip-rule="evenodd" d="M13.438,7.683c0.625,0,1.25,0,1.901,0c0,0.309,0,0.608,0,0.944
		c-0.293,0-0.594,0-0.94,0c0,0.349,0,0.664,0,0.978l0.011-0.01c-0.324,0-0.647,0-0.972,0l0.01,0.01c0-0.645,0-1.289,0-1.933
		L13.438,7.683z"/>
	<path fill-rule="evenodd" clip-rule="evenodd" d="M22.102,21.143c0-0.306,0-0.611,0-0.941c0.633,0,1.252,0,1.895,0
		c0,0.617,0,1.236,0,1.895c-0.315,0-0.63,0-0.944,0l0.011,0.01c0-0.316,0-0.632,0-0.972c-0.357,0-0.664,0-0.972,0L22.102,21.143z"/>
	<path fill-rule="evenodd" clip-rule="evenodd" d="M0.948,11.519c-0.306,0-0.612,0-0.942,0c0-0.634,0-1.254,0-1.914
		c0.313,0,0.628,0,0.942,0l-0.01-0.01c0,0.645,0,1.289,0,1.933L0.948,11.519z"/>
	<path fill-rule="evenodd" clip-rule="evenodd" d="M8.641,6.71c-0.307,0-0.613,0-0.943,0c0-0.634,0-1.254,0-1.913
		c0.313,0,0.629,0,0.943,0L8.63,4.788c0,0.644,0,1.289,0,1.933L8.641,6.71z"/>
	<path fill-rule="evenodd" clip-rule="evenodd" d="M15.36,1.913c0.306,0,0.612,0,0.942,0c0,0.313,0,0.613,0,0.952
		c-0.313,0-0.628,0-0.942,0l0.01,0.009c0-0.324,0-0.647,0-0.971L15.36,1.913z"/>
	<path fill-rule="evenodd" clip-rule="evenodd" d="M15.359,3.835c0.306,0,0.611,0,0.942,0c0,0.312,0,0.611,0,0.935
		c-0.295,0-0.595,0-0.933,0c0-0.316,0-0.63,0-0.944L15.359,3.835z"/>
	<path fill-rule="evenodd" clip-rule="evenodd" d="M16.3,6.703c-0.309,0-0.601,0-0.913,0c0-0.313,0-0.612,0-0.931
		c0.302,0,0.594,0,0.913,0C16.3,6.066,16.3,6.367,16.3,6.703z"/>
	<path fill-rule="evenodd" clip-rule="evenodd" d="M13.438,6.71c0,0.324,0,0.648,0,0.973l0.01-0.01c-0.323,0-0.647,0-0.971,0
		l0.009,0.009c0-0.324,0-0.647,0-0.971l-0.009,0.01c0.323,0,0.647,0,0.971,0L13.438,6.71z"/>
	<path fill-rule="evenodd" clip-rule="evenodd" d="M23.054,8.645c0.306,0,0.61,0,0.94,0c0,0.311,0,0.61,0,0.933
		c-0.296,0-0.595,0-0.931,0c0-0.315,0-0.629,0-0.943L23.054,8.645z"/>
	<path fill-rule="evenodd" clip-rule="evenodd" d="M1.921,16.311c0-0.306,0-0.598,0-0.916c0.3,0,0.6,0,0.923,0
		c0,0.297,0,0.597,0,0.916C2.538,16.311,2.237,16.311,1.921,16.311z"/>
	<path fill-rule="evenodd" clip-rule="evenodd" d="M23.063,8.634c-0.306,0-0.611,0-0.942,0c0-0.312,0-0.611,0-0.934
		c0.295,0,0.595,0,0.933,0c0,0.316,0,0.63,0,0.944L23.063,8.634z"/>
	<path fill-rule="evenodd" clip-rule="evenodd" d="M20.177,8.645c0-0.306,0-0.612,0-0.942c0.313,0,0.611,0,0.935,0
		c0,0.295,0,0.595,0,0.932c-0.315,0-0.63,0-0.944,0L20.177,8.645z"/>
	<path fill-rule="evenodd" clip-rule="evenodd" d="M3.834,14.404c-0.306,0-0.612,0-0.942,0c0-0.313,0-0.611,0-0.936
		c0.295,0,0.595,0,0.933,0c0,0.316,0,0.631,0,0.945L3.834,14.404z"/>
	<path fill-rule="evenodd" clip-rule="evenodd" d="M22.089,9.621c0,0.319,0,0.604,0,0.914c-0.307,0-0.606,0-0.931,0
		c0-0.293,0-0.593,0-0.914C21.46,9.621,21.761,9.621,22.089,9.621z"/>
	<path fill-rule="evenodd" clip-rule="evenodd" d="M14.398,9.605c0.308,0,0.614,0,0.962,0c0,0.331,0,0.646,0,0.962l0.01-0.01
		c-0.315,0-0.63,0-0.961,0c0-0.348,0-0.654,0-0.961L14.398,9.605z"/>
	<path fill-rule="evenodd" clip-rule="evenodd" d="M21.14,22.105c0-0.307,0-0.614,0-0.963c0.331,0,0.646,0,0.962,0l-0.011-0.009
		c0,0.323,0,0.647,0,0.972l0.01-0.01c-0.323,0-0.647,0-0.971,0L21.14,22.105z"/>
	<path fill-rule="evenodd" clip-rule="evenodd" d="M14.397,22.104c0.307,0,0.612,0,0.942,0c0,0.313,0,0.612,0,0.936
		c-0.295,0-0.595,0-0.932,0c0-0.316,0-0.631-0.001-0.945L14.397,22.104z"/>
	<path fill-rule="evenodd" clip-rule="evenodd" d="M8.641,1.903c-0.307,0-0.612,0-0.942,0c0-0.313,0-0.613,0-0.952
		c0.313,0,0.628,0,0.942,0L8.63,0.941c0,0.324,0,0.647,0,0.971L8.641,1.903z"/>
	<path fill-rule="evenodd" clip-rule="evenodd" d="M11.524,14.402c0,0.324,0,0.648,0,0.972c-0.645,0-1.288,0-1.933,0
		c0-0.308,0-0.614,0-0.972C10.253,14.402,10.889,14.402,11.524,14.402z"/>
	<path fill-rule="evenodd" clip-rule="evenodd" d="M9.592,17.297c0-0.323,0-0.646,0-0.971c0.306,0,0.612,0,0.941,0
		c0,0.322,0,0.623,0,0.971C10.221,17.297,9.906,17.297,9.592,17.297z"/>
	<path fill-rule="evenodd" clip-rule="evenodd" d="M11.515,20.182c0-0.324,0-0.647,0-0.971c0.306,0,0.612,0,0.942,0
		c0,0.322,0,0.623,0,0.971C12.144,20.182,11.829,20.182,11.515,20.182z"/>
	<path fill-rule="evenodd" clip-rule="evenodd" d="M17.307,17.309c0.311,0,0.603,0,0.919,0c0,0.302,0,0.602,0,0.924
		c-0.3,0-0.6,0-0.919,0C17.307,17.932,17.307,17.64,17.307,17.309z"/>
	<path fill-rule="evenodd" clip-rule="evenodd" d="M1.93,1.922c0.955,0,1.888,0,2.84,0c0,0.947,0,1.88,0,2.841
		c-0.932,0-1.873,0-2.84,0C1.93,3.835,1.93,2.894,1.93,1.922z"/>
	<path fill-rule="evenodd" clip-rule="evenodd" d="M22.072,4.775c-0.961,0-1.894,0-2.844,0c0-0.949,0-1.882,0-2.841
		c0.938,0,1.88,0,2.844,0C22.072,2.87,22.072,3.811,22.072,4.775z"/>
	<path fill-rule="evenodd" clip-rule="evenodd" d="M1.929,19.231c0.959,0,1.892,0,2.843,0c0,0.948,0,1.882,0,2.841
		c-0.937,0-1.878,0-2.843,0C1.929,21.14,1.929,20.198,1.929,19.231z"/>
</g>
</svg>
